0
SECTION
2
HEADER
9
$INSUNITS
70
4
9
$ACADVER
1
AC1014
9
$HANDSEED
5
FFFF
0
ENDSEC
0
SECTION
2
TABLES
0
TABLE
2
VPORT
5
8
100
AcDbSymbolTable
0
ENDTAB
0
TABLE
2
LTYPE
5
5
100
AcDbSymbolTable
0
LTYPE
5
14
100
AcDbSymbolTableRecord
100
AcDbLinetypeTableRecord
2
BYBLOCK
70
0
0
LTYPE
5
15
100
AcDbSymbolTableRecord
100
AcDbLinetypeTableRecord
2
BYLAYER
70
0
0
ENDTAB
0
TABLE
2
LAYER
5
2
100
AcDbSymbolTable
70
2
0
LAYER
5
50
100
AcDbSymbolTableRecord
100
AcDbLayerTableRecord
2
0
70
0
6
CONTINUOUS
0
ENDTAB
0
TABLE
2
STYLE
5
3
100
AcDbSymbolTable
70
1
0
STYLE
5
11
100
AcDbSymbolTableRecord
100
AcDbTextStyleTableRecord
2
STANDARD
70
0
0
ENDTAB
0
TABLE
2
VIEW
5
6
100
AcDbSymbolTable
70
0
0
ENDTAB
0
TABLE
2
UCS
5
7
100
AcDbSymbolTable
70
0
0
ENDTAB
0
TABLE
2
APPID
5
9
100
AcDbSymbolTable
70
2
0
APPID
5
12
100
AcDbSymbolTableRecord
100
AcDbRegAppTableRecord
2
ACAD
70
0
0
ENDTAB
0
TABLE
2
DIMSTYLE
5
A
100
AcDbSymbolTable
70
1
0
ENDTAB
0
TABLE
2
BLOCK_RECORD
5
1
100
AcDbSymbolTable
70
1
0
BLOCK_RECORD
5
1F
100
AcDbSymbolTableRecord
100
AcDbBlockTableRecord
2
*MODEL_SPACE
0
BLOCK_RECORD
5
1B
100
AcDbSymbolTableRecord
100
AcDbBlockTableRecord
2
*PAPER_SPACE
0
ENDTAB
0
ENDSEC
0
SECTION
2
BLOCKS
0
BLOCK
5
20
100
AcDbEntity
100
AcDbBlockBegin
2
*MODEL_SPACE
0
ENDBLK
5
21
100
AcDbEntity
100
AcDbBlockEnd
0
BLOCK
5
1C
100
AcDbEntity
100
AcDbBlockBegin
2
*PAPER_SPACE
0
ENDBLK
5
1D
100
AcDbEntity
100
AcDbBlockEnd
0
ENDSEC
0
SECTION
2
ENTITIES
0
LWPOLYLINE
5
100
100
AcDbEntity
8
0
100
AcDbPolyline
90
6
70
1
43
0.0
10
-33.313578820256069
20
-51.004780618322201
10
-33.541148908960494
20
-50.848782388341732
10
-2.8960071802414156
20
-50.848782388341732
10
-2.8960071802414111
20
-53.759199055008402
10
-28.633979121871462
20
-53.759199055008402
10
-30.892739828455124
20
-52.503267963699813
0
LWPOLYLINE
5
101
100
AcDbEntity
8
0
100
AcDbPolyline
90
6
70
1
43
0.0
10
-40.100624171920302
20
-45.874344420405535
10
-41.027707441675346
20
-45.027949055008406
10
-2.8960071802414156
20
-45.027949055008406
10
-2.89600718024142
20
-47.938365721675069
10
-37.588297708856743
20
-47.938365721675062
10
-37.921001076725787
20
-47.68683068749538
0
LWPOLYLINE
5
102
100
AcDbEntity
8
0
100
AcDbPolyline
90
5
70
1
43
0.0
10
2.728996698034134
20
-47.398169366491146
10
2.728996698034134
20
-44.300974694860287
10
28.657170208267701
20
-53.738060164424084
10
27.420811565689579
20
-54.398339629145767
10
25.056364480626911
20
-55.524675917597925
0
LWPOLYLINE
5
103
100
AcDbEntity
8
0
100
AcDbPolyline
90
6
70
1
43
0.0
10
-46.101372234054089
20
-39.864649875931235
10
-46.646489961969529
20
-39.207115721675052
10
-2.8960071802414156
20
-39.207115721675052
10
-2.8960071802414156
20
-42.117532388341715
10
-44.036773610142539
20
-42.117532388341729
10
-44.194289835321584
20
-41.959782004328872
0
LWPOLYLINE
5
104
100
AcDbEntity
8
0
100
AcDbPolyline
90
6
70
1
43
0.0
10
2.728996698034134
20
-41.20377194878688
10
2.728996698034134
20
-38.106569202713473
10
34.989269169144166
20
-49.84834280806016
10
34.584812267593875
20
-50.141541965774998
10
32.267818681371551
20
-51.665657591792247
10
31.965882976822385
20
-51.845120151810143
0
LWPOLYLINE
5
105
100
AcDbEntity
8
0
100
AcDbPolyline
90
5
70
1
43
0.0
10
-49.61862363023328
20
-35.41610842543075
10
-51.005497956303429
20
-33.386282388341719
10
-2.8960071802414156
20
-33.386282388341719
10
-2.8960071802414067
20
-36.296699055008389
10
-48.954928676314829
20
-36.296699055008396
0
LWPOLYLINE
5
106
100
AcDbEntity
8
0
100
AcDbPolyline
90
5
70
1
43
0.0
10
2.728996698034134
20
-35.009374531082599
10
2.728996698034134
20
-31.912163710566652
10
40.350925103795852
20
-45.605417036982686
10
38.989759802790815
20
-46.793765044184838
10
37.771633251480587
20
-47.763844720495044
0
LWPOLYLINE
5
107
100
AcDbEntity
8
0
100
AcDbPolyline
90
5
70
1
43
0.0
10
-54.100007875787888
20
-28.149804536474043
10
-54.388717643447393
20
-27.565449055008386
10
-2.8960071802414156
20
-27.565449055008386
10
-2.8960071802414156
20
-30.475865721675053
10
-52.811266287195366
20
-30.475865721675053
0
LWPOLYLINE
5
108
100
AcDbEntity
8
0
100
AcDbPolyline
90
5
70
1
43
0.0
10
2.728996698034134
20
-28.814969038935793
10
2.728996698034134
20
-25.71776629286239
10
44.959978397659803
20
-41.088590025874282
10
43.06795887149606
20
-43.06795079705347
10
42.742776846858199
20
-43.378792611730404
0
LWPOLYLINE
5
109
100
AcDbEntity
8
0
100
AcDbPolyline
90
5
70
1
43
0.0
10
-56.517326410638972
20
-22.950549864741458
10
-56.976818712579885
20
-21.744615721675054
10
-2.8960071802414156
20
-21.744615721675054
10
-2.8960071802414067
20
-24.65503238834172
10
-55.773262492843145
20
-24.655032388341734
0
LWPOLYLINE
5
110
100
AcDbEntity
8
0
100
AcDbPolyline
90
5
70
1
43
0.0
10
2.728996698034134
20
-22.620563546788986
10
2.728996698034134
20
-19.523368875158127
10
48.882364948563115
20
-36.321818645767671
10
48.516511956823216
20
-36.826527825963801
10
46.998080738358034
20
-38.733194390905204
0
LWPOLYLINE
5
111
100
AcDbEntity
8
0
100
AcDbPolyline
90
5
70
1
43
0.0
10
-58.445937291808605
20
-17.499744009944095
10
-58.878939366368137
20
-15.923782388341721
10
-2.8960071802414156
20
-15.923782388341721
10
-2.8960071802414156
20
-18.834199055008387
10
-58.009301718103565
20
-18.834199055008384
0
LWPOLYLINE
5
112
100
AcDbEntity
8
0
100
AcDbPolyline
90
5
70
1
43
0.0
10
2.728996698034134
20
-16.426166129084731
10
2.728996698034134
20
-13.328963383011327
10
52.216560657791632
20
-31.34096957045028
10
51.665657591792282
20
-32.267818681371509
10
50.620211068761677
20
-33.857143505386816
0
LWPOLYLINE
5
113
100
AcDbEntity
8
0
100
AcDbPolyline
90
5
70
1
43
0.0
10
-59.857995804178394
20
-11.825235724421637
10
-60.15581556163994
20
-10.102949055008388
10
-2.8960071802414156
20
-10.102949055008388
10
-2.8960071802414156
20
-13.013365721675054
10
-59.592560617156501
20
-13.013365721675063
0
LWPOLYLINE
5
114
100
AcDbEntity
8
0
100
AcDbPolyline
90
5
70
1
43
0.0
10
2.728996698034134
20
-10.231760636937906
10
2.728996698034134
20
-7.134565965307047
10
54.999239643387341
20
-26.159373704564864
10
54.398339629145802
20
-27.420811565689544
10
53.675289448074828
20
-28.774693719518474
0
LWPOLYLINE
5
115
100
AcDbEntity
8
0
100
AcDbPolyline
90
5
70
1
43
0.0
10
-60.725653195408654
20
-5.9548737605137596
10
-60.848867170043462
20
-4.2821157216750549
10
-2.8960071802414156
20
-4.2821157216750541
10
-2.8960071802414156
20
-7.1925323883417214
10
-60.57333085539706
20
-7.1925323883417143
0
LWPOLYLINE
5
116
100
AcDbEntity
8
0
100
AcDbPolyline
90
5
70
1
43
0.0
10
59.636327401769492
20
-12.361128401728759
10
33.172245065343716
20
-2.7289966980340985
10
41.681738575272107
20
-2.7289966980340994
10
60.163879179927051
20
-9.4559439738316247
10
59.841111413610321
20
-11.406382091812596
0
LWPOLYLINE
5
117
100
AcDbEntity
8
0
100
AcDbPolyline
90
5
70
1
43
0.0
10
58.177598611486296
20
-18.024598924291425
10
16.153266119929484
20
-2.7289966980340985
10
24.662775778742958
20
-2.7289966980341029
10
58.973561008743786
20
-15.21709910231063
10
58.51170289513702
20
-16.964456915827885
0
LWPOLYLINE
5
118
100
AcDbEntity
8
0
100
AcDbPolyline
90
6
70
1
43
0.0
10
2.728996698034134
20
-4.0373551447910971
10
2.728996698034134
20
-2.7289966980340985
10
7.6437887588861919
20
-2.7289966980340985
10
57.249699823034149
20
-20.784080036453695
10
56.68889749047392
20
-22.311150908442634
10
56.190349109940065
20
-23.495695853205831
0
LWPOLYLINE
5
119
100
AcDbEntity
8
0
100
AcDbPolyline
90
5
70
1
43
0.0
10
-61.021060713159713
20
0.083501203882398733
10
-60.985412049321006
20
1.5387176116582779
10
-2.8960071802414156
20
1.5387176116582784
10
-2.8960071802414067
20
-1.3716990550083885
10
-60.985412049321013
20
-1.371699055008389
0
LWPOLYLINE
5
120
100
AcDbEntity
8
0
100
AcDbPolyline
90
5
70
1
43
0.0
10
-60.725653195408647
20
6.1218761682785576
10
-60.573328836786416
20
7.3595509449916108
10
-2.8960071802414156
20
7.3595509449916108
10
-2.8960071802414156
20
4.4491342783249443
10
-60.848867170043462
20
4.449134278324955
0
LWPOLYLINE
5
121
100
AcDbEntity
8
0
100
AcDbPolyline
90
5
70
1
43
0.0
10
33.172236990901162
20
2.8960071802414546
10
59.636311252884404
20
12.528146958378663
10
59.841111413610328
20
11.573392574019927
10
60.163879179927058
20
9.6229625304815229
10
41.681714351944464
20
2.8960071802414511
0
LWPOLYLINE
5
122
100
AcDbEntity
8
0
100
AcDbPolyline
90
5
70
1
43
0.0
10
-59.857995804178387
20
11.992238132186435
10
-59.59255456132459
20
13.180384278324944
10
-2.8960071802414156
20
13.180384278324944
10
-2.8960071802414067
20
10.269967611658277
10
-60.155811524418667
20
10.269967611658286
0
LWPOLYLINE
5
123
100
AcDbEntity
8
0
100
AcDbPolyline
90
5
70
1
43
0.0
10
16.153249971044403
20
2.8960071802414467
10
58.177598611486303
20
18.191617480941318
10
58.511702895137006
20
17.131475472477785
10
58.973544859858684
20
15.384125733403074
10
24.662727332087687
20
2.8960071802414511
0
LWPOLYLINE
5
124
100
AcDbEntity
8
0
100
AcDbPolyline
90
5
70
1
43
0.0
10
-58.445937291808605
20
17.666746417708904
10
-58.009295662271654
20
19.001217611658284
10
-2.8960071802414156
20
19.001217611658276
10
-2.8960071802414067
20
16.09080094499161
10
-58.878933310536219
20
16.090800944991621
0
LWPOLYLINE
5
125
100
AcDbEntity
8
0
100
AcDbPolyline
90
6
70
1
43
0.0
10
2.728996698034134
20
4.2043817758835385
10
56.190349109940065
20
23.662722484298257
10
56.688897490473934
20
22.478161390649984
10
57.249699823034135
20
20.951090518661051
10
7.6437645355585477
20
2.8960071802414511
10
2.728996698034134
20
2.8960071802414467
0
LWPOLYLINE
5
126
100
AcDbEntity
8
0
100
AcDbPolyline
90
5
70
1
43
0.0
10
-56.517326410638958
20
23.117552272506259
10
-55.773254418400597
20
24.822046907770343
10
-2.8960071802414156
20
24.822046907770346
10
-2.8960071802414156
20
21.911634278324954
10
-56.976814675358611
20
21.911634278324946
0
LWPOLYLINE
5
127
100
AcDbEntity
8
0
100
AcDbPolyline
90
5
70
1
43
0.0
10
2.7289966980341429
20
10.398779193587801
10
53.675289448074835
20
28.941716313389641
10
54.398339629145802
20
27.587826085118166
10
54.999239643387334
20
26.326392261214771
10
2.728996698034134
20
7.30158452195694
0
LWPOLYLINE
5
128
100
AcDbEntity
8
0
100
AcDbPolyline
90
5
70
1
43
0.0
10
-54.100007875787888
20
28.316802907017575
10
-52.811258212752819
20
30.642880241103676
10
-2.8960071802414156
20
30.642880241103676
10
-2.8960071802414156
20
27.732463574437006
10
-54.388713606226126
20
27.732463574437006
0
LWPOLYLINE
5
129
100
AcDbEntity
8
0
100
AcDbPolyline
90
5
70
1
43
0.0
10
2.728996698034134
20
16.593184685734617
10
50.620211068761677
20
34.024158024815428
10
51.665657591792282
20
32.434833200800128
10
52.216560657791632
20
31.507984089878903
10
2.728996698034134
20
13.495990014103757
0
LWPOLYLINE
5
130
100
AcDbEntity
8
0
100
AcDbPolyline
90
5
70
1
43
0.0
10
-49.618623630233287
20
35.583106795974288
10
-48.954920601872288
20
36.463713574437016
10
-2.8960071802414156
20
36.463713574437008
10
-2.8960071802414156
20
33.553296907770338
10
-51.005485844639615
20
33.553296907770346
0
LWPOLYLINE
5
131
100
AcDbEntity
8
0
100
AcDbPolyline
90
5
70
1
43
0.0
10
2.7289966980341429
20
22.78759017788143
10
46.998080738358041
20
38.900212947555097
10
48.516511956823209
20
36.99354234539242
10
48.882364948563115
20
36.488837202417564
10
2.728996698034134
20
19.690379357365476
0
LWPOLYLINE
5
132
100
AcDbEntity
8
0
100
AcDbPolyline
90
6
70
1
43
0.0
10
-44.194289835321577
20
42.126780374872403
10
-44.036761498478725
20
42.284546907770348
10
-2.8960071802414156
20
42.284546907770348
10
-2.8960071802414067
20
39.374130241103686
10
-46.646477850305715
20
39.374130241103671
10
-46.101372234054082
20
40.03165228369604
0
LWPOLYLINE
5
133
100
AcDbEntity
8
0
100
AcDbPolyline
90
5
70
1
43
0.0
10
2.728996698034134
20
28.981979521143142
10
42.742768772415651
20
43.545803093937742
10
43.06795079705352
20
43.234969353703363
10
44.959978397659796
20
41.255608582524168
10
2.728996698034134
20
25.884788886733567
0
LWPOLYLINE
5
134
100
AcDbEntity
8
0
100
AcDbPolyline
90
5
70
1
43
0.0
10
2.7289966980341385
20
35.176385013289959
10
37.771633251480594
20
47.930859239923663
10
38.989759802790822
20
46.960775526392176
10
40.350917029353312
20
45.772443668075113
10
2.728996698034134
20
32.079182267216552
0
LWPOLYLINE
5
135
100
AcDbEntity
8
0
100
AcDbPolyline
90
6
70
1
43
0.0
10
-37.921001076725794
20
47.853833095260178
10
-37.588285597192915
20
48.105380241103681
10
-2.8960071802414156
20
48.105380241103681
10
-2.89600718024142
20
45.194963574437011
10
-41.027691292790244
20
45.194963574437011
10
-40.100624171920302
20
46.0413508653916
0
LWPOLYLINE
5
136
100
AcDbEntity
8
0
100
AcDbPolyline
90
6
70
1
43
0.0
10
2.7289966980341385
20
41.370786468215499
10
31.965874902379845
20
52.012138708460043
10
32.267818681371537
20
51.832672111220866
10
34.584812267593882
20
50.308552447982336
10
34.989269169144166
20
50.015361364710046
10
2.728996698034134
20
38.273583722142092
0
LWPOLYLINE
5
137
100
AcDbEntity
8
0
100
AcDbPolyline
90
6
70
1
43
0.0
10
-30.892739828455124
20
52.670278445907144
10
-28.633958935765101
20
53.926213574437014
10
-2.8960071802414156
20
53.926213574437014
10
-2.89600718024142
20
51.015796907770351
10
-33.541136797296673
20
51.015796907770351
10
-33.313578820256062
20
51.171778988865725
0
LWPOLYLINE
5
138
100
AcDbEntity
8
0
100
AcDbPolyline
90
5
70
1
43
0.0
10
2.728996698034134
20
47.565183885919765
10
25.056356406184364
20
55.69168236258399
10
27.420811565689579
20
54.565350111353112
10
28.657162133825153
20
53.905066609410156
10
2.728996698034134
20
44.467985177067632
0
LWPOLYLINE
5
139
100
AcDbEntity
8
0
100
AcDbPolyline
90
128
70
1
43
0.0
10
4.62024915215604
20
91.370895058254632
10
-0.083509278324918057
20
91.489832393355897
10
-4.7872677088058619
20
91.370895058254632
10
-9.4292728026982857
20
91.017911852675411
10
-14.003791705794804
20
90.436626015631077
10
-18.50507541500297
20
89.632780754593711
10
-22.927374927230346
20
88.612119489935765
10
-27.264953351048298
20
87.380384979672939
10
-31.512069757806927
20
85.943321180371157
10
-35.662975144413785
20
84.306670534638286
10
-39.711932619440233
20
82.476176746713833
10
-43.65318914257255
20
80.457583268511002
10
-47.481011859603406
20
78.256632542637703
10
-51.189655804661591
20
75.879068525659761
10
-54.773371974654665
20
73.330633155532382
10
-58.226419440932744
20
70.617071398126797
10
-61.543057274845914
20
67.744126200703491
10
-64.717540510522994
20
64.717540510523037
10
-67.744126200703448
20
61.54305727484595
10
-70.617071398126768
20
58.226419440932787
10
-73.330633155532354
20
54.773371974654708
10
-75.879068525659719
20
51.189655804661612
10
-78.256632542637675
20
47.481011859603441
10
-80.457583268510987
20
43.653189142572593
10
-82.476176746713804
20
39.711932619440262
10
-84.306670534638243
20
35.662975144413814
10
-85.943321180371143
20
31.512069757806962
10
-87.380384979672897
20
27.264953351048334
10
-88.612119489935722
20
22.927374927230385
10
-89.632780754593696
20
18.505075415003009
10
-90.436626015631049
20
14.003791705794832
10
-91.017911852675354
20
9.4292728026983124
10
-91.37089505825459
20
4.7872677088059117
10
-91.48983239335584
20
0.083509278324951364
10
-91.37089505825459
20
-4.6202491521560081
10
-91.017911852675368
20
-9.2622542460484318
10
-90.436626015631049
20
-13.83677314914495
10
-89.632780754593682
20
-18.338056858353116
10
-88.612119489935722
20
-22.760356370580489
10
-87.380384979672897
20
-27.097938831619722
10
-85.943321180371129
20
-31.34504716393581
10
-84.306670534638243
20
-35.495956587763928
10
-82.476176746713804
20
-39.544910025569102
10
-80.457583268510973
20
-43.486174623143974
10
-78.256632542637661
20
-47.314001377396089
10
-75.879068525659719
20
-51.022641285233007
10
-73.330633155532354
20
-54.606353418004815
10
-70.617071398126768
20
-58.059404921504154
10
-67.744126200703462
20
-61.376030643753516
10
-64.717540510522994
20
-64.550513879430582
10
-61.543057274845914
20
-67.577105625442954
10
-58.226419440932759
20
-70.450056878698163
10
-54.773371974654673
20
-73.163618636103763
10
-51.189655804661584
20
-75.712041894567335
10
-47.481011859603406
20
-78.089609948766551
10
-43.653189142572558
20
-80.290557646723911
10
-39.711932619440226
20
-82.309152134232036
10
-35.662975144413778
20
-84.139644408198507
10
-31.512069757806927
20
-85.776301614415971
10
-27.264953351048298
20
-87.21335860090683
10
-22.92737492723035
20
-88.445098662348883
10
-18.505075415002974
20
-89.465756646764589
10
-14.003791705794796
20
-90.269599699946554
10
-9.4292728026982768
20
-90.850894967687424
10
-4.7872677088058762
20
-91.203877298009701
10
-0.083509278324915837
20
-91.32281383670599
10
4.6202491521560436
20
-91.203877298009701
10
9.2622542460484674
20
-90.850894967687438
10
13.836773149144985
20
-90.269599699946525
10
18.338056858353152
20
-89.465756646764575
10
22.760356370580524
20
-88.445098662348897
10
27.097938831619757
20
-87.21335860090683
10
31.345047163935845
20
-85.776301614415971
10
35.495956587763963
20
-84.139644408198521
10
39.544910025569138
20
-82.309152134232036
10
43.486174623144009
20
-80.290557646723911
10
47.314001377396124
20
-78.089609948766537
10
51.022641285233036
20
-75.712041894567307
10
54.606353418004844
20
-73.163618636103763
10
58.059404921504189
20
-70.450056878698163
10
61.376030643753552
20
-67.577105625442968
10
64.550513879430611
20
-64.550513879430582
10
67.577105625442982
20
-61.376030643753509
10
70.450056878698206
20
-58.059404921504161
10
73.163618636103806
20
-54.606353418004815
10
75.712041894567363
20
-51.022641285233007
10
78.089609948766579
20
-47.314001377396089
10
80.29055764672394
20
-43.486174623143974
10
82.309152134232079
20
-39.544910025569109
10
84.139644408198535
20
-35.495956587763928
10
85.776301614416013
20
-31.345047163935796
10
87.213358600906872
20
-27.097938831619718
10
88.445098662348926
20
-22.760356370580496
10
89.465756646764618
20
-18.33805685835312
10
90.269599699946582
20
-13.836773149144943
10
90.850894967687452
20
-9.262254246048423
10
91.203877298009743
20
-4.6202491521560045
10
91.322813836706018
20
0.083509278324938041
10
91.203877298009743
20
4.7872677088058975
10
90.850894967687466
20
9.4292728026983212
10
90.269599699946568
20
14.003791705794839
10
89.465756646764603
20
18.505075415003006
10
88.44509866234894
20
22.927374927230382
10
87.213358600906872
20
27.264953351048334
10
85.776301614416013
20
31.512069757806962
10
84.139644408198549
20
35.662975144413821
10
82.309152134232079
20
39.711932619440269
10
80.29055764672394
20
43.653189142572586
10
78.089609948766565
20
47.481011859603441
10
75.712041894567349
20
51.189655804661626
10
73.163618636103791
20
54.773371974654701
10
70.450056878698192
20
58.22641944093278
10
67.577105625443011
20
61.54305727484595
10
64.550513879430611
20
64.717540510523037
10
61.376030643753545
20
67.744126200703491
10
58.059404921504196
20
70.617071398126797
10
54.606353418004844
20
73.330633155532396
10
51.022641285233036
20
75.879068525659761
10
47.314001377396124
20
78.256632542637703
10
43.486174623144009
20
80.457583268511016
10
39.544910025569145
20
82.476176746713833
10
35.495956587763963
20
84.306670534638286
10
31.345047163935831
20
85.943321180371171
10
27.097938831619754
20
87.380384979672939
10
22.760356370580531
20
88.612119489935765
10
18.338056858353156
20
89.632780754593725
10
13.836773149144978
20
90.436626015631077
10
9.2622542460484585
20
91.017911852675383
0
LWPOLYLINE
5
140
100
AcDbEntity
8
0
100
AcDbPolyline
90
8
70
1
43
0.0
10
99.83534514305363
20
-41.816654728773592
10
41.025409427500357
20
-100.16308967800498
10
-41.816654728773592
20
-99.835345143053672
10
-100.16308967800501
20
-41.025409427500392
10
-99.835345143053672
20
41.816654728773592
10
-41.025409427500385
20
100.16308967800501
10
41.816654728773599
20
99.835345143053644
10
100.16308967800499
20
41.025409427500357
0
ENDSEC
0
SECTION
2
OBJECTS
0
DICTIONARY
5
C
100
AcDbDictionary
3
ACAD_GROUP
350
D
3
ACAD_MLINESTYLE
350
17
0
DICTIONARY
5
D
100
AcDbDictionary
0
DICTIONARY
5
1A
330
C
100
AcDbDictionary
0
DICTIONARY
5
17
100
AcDbDictionary
0
ENDSEC
0
EOF
